<svg id="svg" xmlns="http://www.w3.org/2000/svg" xmlns:xlink="http://www.w3.org/1999/xlink" width="400" height="400" viewBox="0, 0, 400,400"><g id="svgg"><path id="path0" d="M244.936 111.965 C 243.871 112.825,242.460 114.005,241.800 114.586 C 241.140 115.168,239.088 116.939,237.239 118.522 C 235.391 120.105,232.140 122.930,230.015 124.800 C 227.891 126.670,225.623 128.655,224.976 129.212 C 221.611 132.108,210.786 141.516,209.384 142.763 C 207.571 144.376,204.619 146.928,199.600 151.222 C 197.730 152.822,196.110 154.237,196.000 154.365 C 193.263 157.574,193.213 157.258,193.206 136.780 C 193.202 123.149,193.079 118.439,192.720 118.080 C 192.028 117.388,176.817 117.406,175.873 118.100 C 175.240 118.566,175.200 121.361,175.297 158.800 L 175.400 199.000 184.255 199.108 L 193.109 199.215 193.375 198.156 C 193.522 197.573,193.621 189.155,193.597 179.448 C 193.572 169.742,193.563 161.485,193.576 161.100 C 193.604 160.272,194.135 160.197,194.871 160.917 C 195.162 161.201,196.849 162.686,198.619 164.217 C 200.390 165.748,204.704 169.520,208.206 172.600 C 211.708 175.680,214.874 178.445,215.242 178.745 C 215.609 179.045,216.365 179.698,216.923 180.196 C 220.643 183.516,235.208 196.382,236.172 197.200 C 236.820 197.750,238.981 199.647,240.975 201.415 C 245.203 205.166,246.765 206.400,247.281 206.400 C 248.200 206.400,255.175 197.652,256.309 195.077 C 257.005 193.496,256.654 193.015,251.672 188.726 C 249.291 186.677,244.567 182.563,241.172 179.585 C 237.777 176.606,232.930 172.382,230.400 170.197 C 227.870 168.011,225.620 166.025,225.400 165.781 C 225.180 165.538,223.065 163.666,220.700 161.622 C 218.335 159.577,216.400 157.669,216.400 157.381 C 216.400 156.896,221.047 152.795,235.600 140.439 C 238.790 137.730,241.850 135.127,242.400 134.653 C 242.950 134.179,244.750 132.638,246.400 131.230 C 248.050 129.821,249.460 128.518,249.533 128.334 C 249.607 128.150,249.913 128.000,250.213 128.000 C 250.514 128.000,250.904 127.771,251.080 127.491 C 251.256 127.211,252.435 126.109,253.700 125.042 C 256.945 122.306,256.492 120.969,249.616 113.000 C 247.197 110.196,247.140 110.183,244.936 111.965 M249.317 152.937 C 248.175 153.549,244.796 157.908,244.813 158.748 C 244.863 161.195,251.194 165.211,252.665 163.730 C 253.971 162.416,256.269 159.420,256.527 158.695 C 257.328 156.448,251.482 151.779,249.317 152.937 M231.646 155.298 C 228.850 158.712,228.898 159.419,232.100 161.976 C 235.662 164.821,236.520 164.728,239.272 161.200 C 241.841 157.907,241.759 157.271,238.423 154.650 C 235.092 152.034,234.254 152.114,231.646 155.298 M262.415 155.221 C 259.642 158.553,259.687 159.377,262.781 161.952 C 266.574 165.109,267.275 165.069,270.153 161.527 C 272.768 158.309,272.690 157.404,269.579 154.815 C 266.133 151.947,265.090 152.006,262.415 155.221 M262.233 220.347 C 262.115 220.538,261.159 220.819,260.109 220.973 C 259.059 221.127,257.210 221.411,256.000 221.604 C 254.790 221.798,252.667 222.083,251.282 222.238 C 247.465 222.664,246.813 224.858,250.340 225.406 C 255.538 226.213,255.595 226.329,255.598 236.257 C 255.600 243.983,255.716 243.718,252.504 243.338 C 240.507 241.917,229.000 251.837,229.000 263.600 C 229.000 279.165,241.833 285.719,253.882 276.308 C 254.698 275.671,255.132 276.318,255.417 278.594 C 255.830 281.901,256.820 281.978,265.000 279.342 C 267.741 278.458,269.881 275.842,268.100 275.551 C 267.935 275.524,266.931 275.457,265.870 275.401 C 263.509 275.277,263.164 274.958,262.763 272.520 C 261.888 267.195,262.639 223.795,263.639 221.926 C 264.239 220.806,262.887 219.288,262.233 220.347 M303.000 221.211 C 301.240 221.816,298.384 222.551,296.654 222.844 C 292.107 223.612,291.855 225.378,296.169 226.242 C 299.667 226.943,299.400 224.899,299.400 250.959 C 299.400 276.103,299.393 276.189,297.327 276.611 C 296.817 276.715,295.955 276.892,295.412 277.005 C 294.284 277.238,293.487 278.441,293.844 279.371 C 294.209 280.321,312.191 280.321,312.556 279.371 C 312.969 278.293,312.096 277.319,310.313 276.869 C 306.666 275.949,307.009 278.904,306.934 247.744 C 306.898 232.607,306.718 220.198,306.534 220.167 C 306.350 220.136,304.760 220.606,303.000 221.211 M87.947 225.700 C 87.267 226.969,88.177 227.867,90.448 228.169 C 95.686 228.863,95.400 227.423,95.400 253.091 L 95.400 274.382 94.382 275.400 C 93.646 276.136,92.653 276.533,90.796 276.832 C 87.585 277.349,85.994 278.808,87.576 279.785 C 88.083 280.098,110.694 280.113,111.200 279.800 C 112.721 278.860,111.290 277.401,108.309 276.852 C 103.036 275.882,103.089 276.159,103.266 250.332 L 103.400 230.864 104.329 229.875 C 104.928 229.238,106.111 228.698,107.663 228.353 C 110.237 227.782,111.135 226.928,110.449 225.702 C 109.854 224.638,88.516 224.636,87.947 225.700 M118.422 225.200 C 117.294 225.947,117.946 227.997,119.314 228.006 C 122.438 228.027,124.465 229.481,124.092 231.431 C 123.649 233.748,110.826 247.749,106.500 250.640 C 104.029 252.291,103.929 252.896,105.801 254.871 C 106.568 255.680,108.249 257.660,109.536 259.271 C 115.761 267.060,126.002 277.967,128.117 279.060 C 130.799 280.447,143.021 280.903,144.148 279.658 C 145.465 278.202,144.605 277.467,141.000 276.969 C 137.109 276.432,134.994 274.994,128.401 268.399 C 122.317 262.314,114.557 253.365,113.285 250.966 C 112.774 250.003,112.118 250.809,121.732 240.600 C 131.978 229.720,133.293 228.687,137.642 228.104 C 139.702 227.827,140.918 225.302,139.057 225.167 C 136.981 225.015,118.656 225.045,118.422 225.200 M278.333 228.010 C 275.040 229.750,276.655 235.600,280.428 235.600 C 283.227 235.600,284.800 233.873,284.800 230.802 C 284.800 227.548,281.723 226.219,278.333 228.010 M160.235 243.835 C 140.681 249.161,142.298 280.800,162.124 280.800 C 169.480 280.800,179.677 274.717,176.928 271.968 C 176.696 271.736,175.446 272.163,173.643 273.088 C 166.098 276.959,157.137 273.906,154.482 266.559 C 152.587 261.315,152.058 261.600,165.200 260.792 C 177.843 260.014,178.821 259.629,177.015 256.132 C 176.693 255.510,176.119 253.920,175.739 252.600 C 173.714 245.574,167.255 241.922,160.235 243.835 M203.200 244.084 C 201.990 244.526,199.684 245.772,198.076 246.853 C 194.638 249.162,194.400 249.105,194.400 245.976 C 194.400 243.381,194.320 243.319,192.108 244.201 C 191.279 244.532,188.890 245.233,186.800 245.760 C 182.469 246.853,181.494 248.268,184.185 249.557 C 184.837 249.869,185.827 250.549,186.385 251.067 L 187.400 252.008 187.376 263.304 C 187.351 275.498,187.238 276.215,185.288 276.613 C 183.251 277.028,182.200 277.778,182.200 278.815 L 182.200 279.800 191.000 279.800 L 199.800 279.800 199.927 278.700 C 200.062 277.524,198.961 276.800,197.036 276.800 C 194.760 276.800,194.612 276.084,194.467 264.395 C 194.322 252.766,194.332 252.703,196.554 251.008 C 200.254 248.186,205.561 248.366,208.365 251.408 C 210.497 253.721,210.801 255.540,210.794 265.920 C 210.787 276.139,210.716 276.401,207.788 277.019 C 205.948 277.407,205.791 277.534,205.675 278.719 L 205.549 280.000 214.351 280.000 C 223.599 280.000,223.874 279.945,223.431 278.181 C 223.239 277.416,222.843 277.152,221.579 276.950 C 218.038 276.384,218.118 276.661,217.891 264.307 C 217.732 255.716,217.551 252.978,217.037 251.410 C 214.921 244.959,209.156 241.907,203.200 244.084 M279.600 244.630 C 277.510 245.148,275.237 245.579,274.549 245.586 C 271.751 245.617,271.738 247.779,274.528 249.104 C 277.665 250.593,277.750 251.020,277.480 263.963 C 277.220 276.438,277.335 276.034,273.777 276.912 C 271.955 277.362,271.800 277.494,271.800 278.600 L 271.800 279.800 280.910 279.908 C 289.078 280.004,290.046 279.947,290.273 279.353 C 290.692 278.263,289.836 277.429,287.760 276.907 C 284.671 276.129,284.800 276.870,284.800 259.956 C 284.800 251.656,284.691 244.581,284.557 244.233 C 284.263 243.465,284.315 243.461,279.600 244.630 M165.113 248.383 C 168.638 250.937,170.378 256.671,167.800 257.240 C 164.392 257.993,153.600 257.629,153.600 256.762 C 153.600 249.712,160.259 244.866,165.113 248.383 M252.669 248.923 C 255.491 250.367,255.720 251.487,255.538 262.933 L 255.400 271.667 254.116 272.814 C 248.256 278.047,238.631 273.874,236.555 265.200 C 233.622 252.944,242.670 243.804,252.669 248.923 " stroke="none" fill="#2a7da7" fill-rule="evenodd"></path><path id="path1" d="M0.000 200.000 L 0.000 400.000 200.000 400.000 L 400.000 400.000 400.000 200.000 L 400.000 0.000 200.000 0.000 L 0.000 0.000 0.000 200.000 M203.763 89.410 C 212.786 89.974,223.329 93.326,232.728 98.622 C 237.191 101.136,237.610 101.187,244.214 100.034 C 254.023 98.320,254.002 98.279,246.597 104.580 C 245.059 105.889,242.805 107.869,241.588 108.980 C 236.690 113.454,233.078 116.400,232.492 116.400 C 232.258 116.400,230.206 115.155,227.933 113.634 C 213.584 104.033,198.736 101.673,182.116 106.353 C 171.220 109.421,160.453 116.891,153.538 126.180 C 140.201 144.096,139.455 169.896,151.747 188.153 C 152.766 189.667,153.600 190.990,153.600 191.093 C 153.600 191.197,154.455 192.203,155.500 193.330 C 165.649 204.278,176.262 210.163,189.565 212.218 C 193.796 212.872,202.951 212.995,205.154 212.427 C 205.949 212.223,207.680 211.845,209.000 211.588 C 212.838 210.842,216.324 209.628,220.400 207.618 C 225.358 205.174,225.630 205.011,229.328 202.253 C 233.158 199.398,232.375 199.133,240.029 205.870 C 243.235 208.691,246.922 211.900,248.222 213.000 C 252.302 216.452,255.400 219.533,255.097 219.837 C 254.854 220.079,250.607 218.974,245.000 217.208 C 239.661 215.526,237.340 215.779,232.800 218.537 C 229.648 220.451,224.203 223.036,220.200 224.518 C 218.302 225.221,210.934 227.040,208.448 227.420 C 205.401 227.886,207.422 228.309,213.960 228.575 C 222.719 228.930,227.743 229.816,224.798 230.486 C 218.177 231.992,169.200 231.565,169.200 230.001 C 169.200 229.405,171.427 229.121,179.887 228.641 C 188.384 228.159,190.226 227.856,187.341 227.417 C 182.240 226.641,175.937 225.016,172.600 223.617 C 162.314 219.304,155.669 215.131,149.119 208.874 C 146.318 206.198,141.807 201.057,140.600 199.166 C 140.380 198.822,139.369 197.293,138.352 195.770 C 127.919 180.129,124.927 156.653,130.912 137.400 C 132.774 131.412,136.703 123.407,139.678 119.542 C 140.295 118.741,140.801 117.931,140.802 117.742 C 140.806 116.874,148.114 109.169,152.650 105.251 C 155.078 103.154,164.212 97.212,165.020 97.204 C 165.251 97.202,165.650 96.990,165.907 96.733 C 166.164 96.476,166.965 96.044,167.687 95.772 C 168.409 95.501,170.440 94.696,172.200 93.985 C 176.145 92.389,180.262 91.162,184.400 90.350 C 187.308 89.778,197.078 88.874,198.600 89.035 C 199.260 89.105,201.583 89.274,203.763 89.410 M250.595 114.200 C 256.940 121.823,257.057 122.261,253.535 125.193 C 252.361 126.170,251.256 127.202,251.080 127.485 C 250.904 127.768,250.514 128.000,250.213 128.000 C 249.913 128.000,249.607 128.150,249.533 128.334 C 249.460 128.518,248.050 129.821,246.400 131.230 C 244.750 132.638,242.950 134.179,242.400 134.653 C 241.850 135.127,238.790 137.730,235.600 140.439 C 221.047 152.795,216.400 156.896,216.400 157.381 C 216.400 157.669,218.335 159.577,220.700 161.622 C 223.065 163.666,225.180 165.538,225.400 165.781 C 225.620 166.025,227.870 168.011,230.400 170.197 C 232.930 172.382,237.778 176.606,241.174 179.585 C 244.569 182.563,248.799 186.240,250.574 187.756 C 252.348 189.272,254.557 191.237,255.483 192.123 L 257.166 193.734 256.483 194.952 C 254.313 198.822,248.183 206.401,247.225 206.398 C 246.881 206.397,244.440 204.489,241.800 202.158 C 239.160 199.826,235.920 196.977,234.600 195.827 C 233.280 194.677,228.870 190.803,224.800 187.218 C 220.730 183.634,216.230 179.671,214.800 178.413 C 213.370 177.155,209.870 174.072,207.021 171.563 C 204.173 169.053,200.393 165.748,198.621 164.217 C 196.850 162.686,195.162 161.201,194.871 160.917 C 194.135 160.197,193.604 160.272,193.579 161.100 C 193.567 161.485,193.522 170.170,193.479 180.400 L 193.400 199.000 184.300 199.108 L 175.200 199.215 175.200 158.822 C 175.200 119.295,175.217 118.419,175.974 118.014 C 177.115 117.403,192.102 117.462,192.720 118.080 C 193.079 118.439,193.202 123.149,193.206 136.780 C 193.213 157.258,193.263 157.574,196.000 154.365 C 196.110 154.237,197.730 152.822,199.600 151.222 C 204.619 146.928,207.571 144.376,209.384 142.763 C 210.786 141.516,221.611 132.108,224.976 129.212 C 225.623 128.655,227.891 126.670,230.015 124.800 C 232.140 122.930,235.391 120.105,237.239 118.522 C 239.088 116.939,241.140 115.168,241.800 114.586 C 247.331 109.714,246.878 109.734,250.595 114.200 M254.383 154.920 C 257.393 157.704,257.419 157.995,254.948 161.084 C 251.828 164.986,251.241 165.104,248.002 162.471 C 244.207 159.386,244.121 158.970,246.621 155.751 C 249.543 151.988,251.040 151.828,254.383 154.920 M266.926 152.854 C 272.007 155.497,272.964 158.068,270.153 161.527 C 267.275 165.069,266.574 165.109,262.781 161.952 C 259.748 159.428,259.672 158.566,262.211 155.451 C 264.685 152.413,265.362 152.041,266.926 152.854 M238.423 154.650 C 241.759 157.271,241.841 157.907,239.272 161.200 C 236.520 164.728,235.662 164.821,232.100 161.976 C 228.898 159.419,228.850 158.712,231.646 155.298 C 234.254 152.114,235.092 152.034,238.423 154.650 M263.579 220.574 C 263.920 220.985,263.937 221.370,263.639 221.926 C 262.639 223.795,261.888 267.195,262.763 272.520 C 263.164 274.958,263.509 275.277,265.870 275.401 C 266.931 275.457,267.935 275.524,268.100 275.551 C 269.881 275.842,267.741 278.458,265.000 279.342 C 256.820 281.978,255.830 281.901,255.417 278.594 C 255.132 276.318,254.698 275.671,253.882 276.308 C 241.833 285.719,229.000 279.165,229.000 263.600 C 229.000 251.837,240.507 241.917,252.504 243.338 C 255.716 243.718,255.600 243.983,255.598 236.257 C 255.595 226.329,255.538 226.213,250.340 225.406 C 246.813 224.858,247.465 222.664,251.282 222.238 C 252.667 222.083,254.790 221.798,256.000 221.604 C 257.210 221.411,259.059 221.127,260.109 220.973 C 261.159 220.819,262.115 220.538,262.233 220.347 C 262.547 219.839,263.037 219.922,263.579 220.574 M307.000 247.632 C 307.000 278.928,306.662 275.948,310.313 276.869 C 312.096 277.319,312.969 278.293,312.556 279.371 C 312.346 279.918,311.119 280.000,303.200 280.000 C 295.281 280.000,294.054 279.918,293.844 279.371 C 293.487 278.441,294.284 277.238,295.412 277.005 C 295.955 276.892,296.817 276.715,297.327 276.611 C 299.393 276.189,299.400 276.103,299.400 250.959 C 299.400 224.899,299.667 226.943,296.169 226.242 C 291.855 225.378,292.107 223.612,296.654 222.844 C 298.384 222.551,301.240 221.815,303.000 221.208 C 304.760 220.601,306.380 220.081,306.600 220.052 C 306.863 220.018,307.000 229.442,307.000 247.632 M110.449 225.702 C 111.135 226.928,110.237 227.782,107.663 228.353 C 106.111 228.698,104.928 229.238,104.329 229.875 L 103.400 230.864 103.266 250.332 C 103.089 276.159,103.036 275.882,108.309 276.852 C 111.290 277.401,112.721 278.860,111.200 279.800 C 110.694 280.113,88.083 280.098,87.576 279.785 C 85.994 278.808,87.585 277.349,90.796 276.832 C 92.653 276.533,93.646 276.136,94.382 275.400 L 95.400 274.382 95.400 253.091 C 95.400 227.423,95.686 228.863,90.448 228.169 C 88.177 227.867,87.267 226.969,87.947 225.700 C 88.516 224.636,109.854 224.638,110.449 225.702 M139.057 225.167 C 140.918 225.302,139.702 227.827,137.642 228.104 C 133.293 228.687,131.978 229.720,121.732 240.600 C 112.118 250.809,112.774 250.003,113.285 250.966 C 114.557 253.365,122.317 262.314,128.401 268.399 C 134.994 274.994,137.109 276.432,141.000 276.969 C 144.605 277.467,145.465 278.202,144.148 279.658 C 143.021 280.903,130.799 280.447,128.117 279.060 C 126.002 277.967,115.761 267.060,109.536 259.271 C 108.249 257.660,106.568 255.680,105.801 254.871 C 103.929 252.896,104.029 252.291,106.500 250.640 C 110.826 247.749,123.649 233.748,124.092 231.431 C 124.465 229.481,122.438 228.027,119.314 228.006 C 117.946 227.997,117.294 225.947,118.422 225.200 C 118.656 225.045,136.981 225.015,139.057 225.167 M283.818 228.182 C 285.607 229.971,284.820 234.356,282.555 235.217 C 279.089 236.535,275.799 233.646,276.602 229.991 C 277.154 227.476,281.918 226.282,283.818 228.182 M167.096 243.737 C 171.153 244.789,174.468 248.189,175.739 252.600 C 176.119 253.920,176.693 255.510,177.015 256.132 C 178.821 259.629,177.843 260.014,165.200 260.792 C 152.058 261.600,152.587 261.315,154.482 266.559 C 157.137 273.906,166.098 276.959,173.643 273.088 C 177.796 270.957,178.625 272.595,175.100 275.965 C 166.871 283.834,153.273 282.069,148.786 272.551 C 141.695 257.507,152.801 240.029,167.096 243.737 M209.354 243.675 C 216.174 245.641,217.611 249.113,217.891 264.307 C 218.118 276.661,218.038 276.384,221.579 276.950 C 222.843 277.152,223.239 277.416,223.431 278.181 C 223.874 279.945,223.599 280.000,214.351 280.000 L 205.549 280.000 205.675 278.719 C 205.791 277.534,205.948 277.407,207.788 277.019 C 210.716 276.401,210.787 276.139,210.794 265.920 C 210.801 255.540,210.497 253.721,208.365 251.408 C 205.561 248.366,200.254 248.186,196.554 251.008 C 194.332 252.703,194.322 252.766,194.467 264.395 C 194.612 276.084,194.760 276.800,197.036 276.800 C 198.961 276.800,200.062 277.524,199.927 278.700 L 199.800 279.800 191.000 279.800 L 182.200 279.800 182.200 278.815 C 182.200 277.778,183.251 277.028,185.288 276.613 C 187.238 276.215,187.351 275.498,187.376 263.304 L 187.400 252.008 186.385 251.067 C 185.827 250.549,184.837 249.869,184.185 249.557 C 181.494 248.268,182.469 246.853,186.800 245.760 C 188.890 245.233,191.279 244.532,192.108 244.201 C 194.320 243.319,194.400 243.381,194.400 245.976 C 194.400 249.105,194.638 249.162,198.076 246.853 C 202.852 243.645,206.087 242.733,209.354 243.675 M284.800 259.686 C 285.020 277.146,284.851 276.173,287.795 276.915 C 289.838 277.430,290.690 278.268,290.273 279.353 C 290.046 279.947,289.078 280.004,280.910 279.908 L 271.800 279.800 271.800 278.600 C 271.800 277.494,271.955 277.362,273.777 276.912 C 277.335 276.034,277.220 276.438,277.480 263.963 C 277.750 251.020,277.665 250.593,274.528 249.104 C 271.738 247.779,271.751 245.617,274.549 245.586 C 275.237 245.579,277.510 245.146,279.600 244.626 C 281.690 244.105,283.670 243.709,284.000 243.745 C 284.518 243.802,284.627 245.969,284.800 259.686 M157.969 248.110 C 156.212 249.293,154.988 251.148,154.220 253.792 C 153.040 257.849,152.662 257.607,160.100 257.553 C 168.941 257.488,169.017 257.467,168.935 255.082 C 168.737 249.344,162.254 245.222,157.969 248.110 M242.885 248.028 C 236.801 249.890,234.044 261.503,237.906 269.000 C 240.919 274.849,249.560 276.882,254.116 272.814 L 255.400 271.667 255.538 262.933 C 255.720 251.487,255.491 250.367,252.669 248.923 C 250.359 247.740,245.329 247.280,242.885 248.028 M80.569 291.570 C 81.466 292.413,81.600 292.868,81.600 295.062 C 81.600 297.825,81.858 297.558,78.546 298.221 C 77.455 298.440,76.900 297.759,76.733 295.998 L 76.600 294.600 70.800 294.600 L 65.000 294.600 65.000 300.800 L 65.000 307.000 70.800 307.000 L 76.600 307.000 76.728 305.207 C 76.898 302.815,78.251 302.316,80.900 303.670 C 82.092 304.279,81.891 308.946,80.618 310.218 L 79.636 311.200 70.800 311.200 L 61.964 311.200 60.982 310.218 C 60.002 309.238,60.000 309.218,60.000 300.888 C 60.000 289.687,59.220 290.404,71.269 290.520 C 79.418 290.599,79.552 290.614,80.569 291.570 M113.600 291.101 C 115.327 291.963,115.541 293.033,115.541 300.800 C 115.541 311.799,116.195 311.248,103.161 311.244 C 89.877 311.241,90.800 312.003,90.800 301.046 C 90.800 293.005,90.998 291.951,92.682 291.038 C 94.457 290.076,111.651 290.127,113.600 291.101 M129.871 291.700 C 130.722 292.415,132.044 293.561,132.809 294.246 C 133.574 294.931,136.360 297.345,139.000 299.610 L 143.800 303.728 143.911 297.592 C 144.033 290.805,144.172 290.400,146.369 290.400 C 148.803 290.400,148.800 290.385,148.800 301.090 L 148.800 310.820 147.772 311.211 C 146.014 311.879,145.155 311.332,137.671 304.775 C 133.669 301.269,130.220 298.400,130.007 298.400 C 129.779 298.400,129.575 300.984,129.510 304.700 L 129.400 311.000 127.200 311.000 L 125.000 311.000 124.893 301.250 C 124.817 294.393,124.921 291.336,125.242 290.950 C 126.070 289.951,128.201 290.296,129.871 291.700 M177.903 290.826 C 179.284 291.307,180.132 292.904,179.931 294.644 C 179.725 296.426,177.006 296.954,175.804 295.445 L 174.952 294.377 169.176 294.489 L 163.400 294.600 163.400 296.400 L 163.400 298.200 170.600 298.402 C 180.163 298.669,180.400 298.823,180.400 304.766 C 180.400 311.219,180.428 311.203,169.126 311.187 C 158.651 311.172,158.000 310.915,158.000 306.782 C 158.000 304.874,161.438 304.337,162.308 306.110 L 162.853 307.220 169.327 307.110 L 175.800 307.000 175.800 305.000 L 175.800 303.000 168.265 302.800 L 160.729 302.600 159.765 301.478 C 157.567 298.921,158.672 291.190,161.308 290.681 C 163.269 290.302,176.738 290.420,177.903 290.826 M194.479 290.500 C 194.522 290.555,194.657 294.290,194.779 298.800 L 195.000 307.000 201.200 307.000 L 207.400 307.000 207.600 298.800 L 207.800 290.600 210.000 290.600 L 212.200 290.600 212.308 299.398 C 212.463 312.023,213.262 311.200,200.863 311.200 C 191.122 311.200,190.745 311.106,190.018 308.488 C 189.416 306.322,189.469 291.491,190.080 290.880 C 190.475 290.485,194.212 290.162,194.479 290.500 M227.200 298.800 L 227.400 307.000 234.800 307.200 L 242.200 307.400 242.200 309.200 L 242.200 311.000 232.400 311.000 L 222.600 311.000 222.493 301.208 C 222.366 289.611,222.206 290.324,224.896 290.479 L 227.000 290.600 227.200 298.800 M262.600 292.400 L 262.600 294.200 258.200 294.400 L 253.800 294.600 253.712 302.200 C 253.664 306.380,253.619 310.095,253.612 310.457 C 253.597 311.279,251.985 311.708,250.184 311.371 L 248.816 311.114 248.708 302.857 L 248.600 294.600 244.200 294.400 C 239.386 294.181,239.113 293.993,239.776 291.353 L 240.018 290.388 251.309 290.494 L 262.600 290.600 262.600 292.400 M273.005 291.300 C 273.126 291.795,273.175 296.424,273.113 301.588 L 273.000 310.975 271.275 311.316 C 268.359 311.892,268.400 312.041,268.400 300.818 C 268.400 295.381,268.520 290.813,268.667 290.667 C 269.421 289.912,272.786 290.404,273.005 291.300 M289.077 292.700 C 290.611 293.965,294.064 296.941,296.750 299.313 C 299.436 301.685,301.806 303.520,302.017 303.389 C 302.235 303.255,302.400 300.407,302.400 296.776 L 302.400 290.400 304.373 290.400 C 306.940 290.400,306.861 290.040,306.750 301.224 C 306.635 312.846,305.981 313.667,300.562 309.000 C 299.285 307.900,297.421 306.300,296.420 305.443 C 295.419 304.587,294.510 303.777,294.400 303.643 C 293.645 302.723,288.407 298.400,288.046 298.400 C 287.738 298.400,287.600 300.189,287.600 304.167 C 287.600 311.298,287.634 311.200,285.157 311.200 L 283.200 311.200 283.200 300.800 L 283.200 290.400 284.744 290.400 C 286.034 290.400,286.748 290.779,289.077 292.700 M337.589 290.844 C 339.108 291.299,340.000 292.727,340.000 294.705 C 340.000 296.475,335.852 297.115,335.216 295.443 L 334.812 294.381 328.106 294.490 L 321.400 294.600 321.400 300.800 L 321.400 307.000 328.200 307.000 L 335.000 307.000 335.127 305.447 C 335.302 303.320,334.859 303.030,331.082 302.800 L 327.800 302.600 327.800 301.000 L 327.800 299.400 333.900 299.290 L 340.000 299.179 340.000 303.809 C 340.000 311.526,340.289 311.353,327.600 311.232 C 315.433 311.117,315.828 311.501,316.082 300.036 C 316.241 292.824,316.569 291.502,318.358 290.846 C 319.847 290.299,335.766 290.298,337.589 290.844 M95.780 294.909 C 95.668 295.199,95.627 298.039,95.689 301.218 L 95.800 307.000 103.000 307.000 L 110.200 307.000 110.200 300.800 L 110.200 294.600 103.091 294.491 C 97.496 294.405,95.939 294.494,95.780 294.909 " stroke="none" fill="#fbfbfb" fill-rule="evenodd"></path><path id="path2" d="M133.734 140.227 C 133.602 140.572,133.698 141.058,133.947 141.307 C 134.284 141.644,134.400 141.484,134.400 140.680 C 134.400 139.477,134.101 139.273,133.734 140.227 M140.806 144.676 C 140.811 145.807,140.912 146.045,141.200 145.600 C 141.706 144.818,141.706 143.712,141.200 143.400 C 140.960 143.252,140.802 143.761,140.806 144.676 M132.438 145.232 C 132.225 145.764,132.037 146.020,132.019 145.800 C 131.945 144.862,131.212 146.713,131.206 147.851 C 131.198 149.513,130.035 152.304,129.626 151.642 C 128.051 149.093,128.264 162.811,129.943 172.000 C 133.559 191.791,146.171 209.317,163.502 218.634 C 164.986 219.432,166.380 220.211,166.600 220.366 C 169.702 222.545,181.477 226.110,189.400 227.269 C 200.190 228.846,213.432 227.054,223.205 222.695 C 228.235 220.451,229.561 219.778,232.777 217.837 C 237.168 215.187,239.872 215.099,247.365 217.361 C 253.161 219.111,254.260 219.221,252.790 217.900 C 251.391 216.643,245.133 211.171,243.966 210.183 C 243.435 209.733,241.650 208.199,240.000 206.774 C 238.350 205.348,236.065 203.412,234.921 202.471 L 232.843 200.761 231.489 201.681 C 221.474 208.480,220.273 209.064,210.800 211.746 C 201.666 214.332,191.458 213.886,179.400 210.376 C 158.968 204.426,142.998 183.193,142.113 160.800 C 141.959 156.909,141.706 154.740,141.342 154.211 C 140.716 153.299,140.632 152.400,141.173 152.400 C 141.379 152.400,141.622 152.895,141.713 153.500 C 141.805 154.105,141.907 153.385,141.940 151.900 C 141.998 149.278,141.410 148.289,140.585 149.624 C 140.419 149.892,140.133 149.788,139.805 149.339 C 139.372 148.748,139.183 148.716,138.661 149.150 C 138.317 149.435,137.847 149.553,137.618 149.411 C 137.388 149.269,137.200 149.436,137.200 149.782 C 137.200 150.299,136.745 151.356,136.078 152.388 C 136.011 152.492,135.789 152.312,135.584 151.988 C 135.259 151.473,135.207 151.475,135.166 152.000 C 135.085 153.062,134.481 150.652,134.440 149.100 C 134.395 147.396,133.929 147.195,133.023 148.489 L 132.400 149.378 132.400 148.289 C 132.400 147.631,132.598 147.240,132.900 147.300 C 133.529 147.426,133.814 145.254,133.243 144.683 C 132.951 144.391,132.707 144.558,132.438 145.232 M142.493 147.200 C 142.493 147.970,142.575 148.285,142.676 147.900 C 142.776 147.515,142.776 146.885,142.676 146.500 C 142.575 146.115,142.493 146.430,142.493 147.200 M191.600 229.172 L 188.600 229.400 191.513 229.726 C 195.108 230.127,205.735 229.975,205.289 229.529 C 204.875 229.115,195.556 228.872,191.600 229.172 M63.256 291.199 C 60.639 291.818,60.600 291.960,60.600 300.803 C 60.600 311.451,59.710 310.600,70.846 310.600 L 79.269 310.600 80.235 309.478 C 81.698 307.777,81.634 304.545,80.126 303.972 C 78.200 303.240,77.446 303.615,77.336 305.361 C 77.194 307.610,77.123 307.633,70.569 307.511 L 64.600 307.400 64.600 300.800 L 64.600 294.200 70.569 294.089 C 76.970 293.970,77.141 294.018,77.559 296.063 C 77.710 296.798,78.050 297.382,78.316 297.360 C 78.582 297.338,79.365 297.293,80.056 297.260 L 81.312 297.200 81.078 294.937 C 80.793 292.175,80.381 291.727,77.638 291.207 C 75.155 290.736,65.239 290.731,63.256 291.199 M94.720 291.185 C 91.445 291.783,91.196 292.481,91.225 301.000 C 91.259 311.089,90.891 310.786,103.120 310.794 C 115.573 310.802,115.224 311.098,115.158 300.600 C 115.096 290.791,115.461 291.121,104.522 290.959 C 100.165 290.894,95.754 290.996,94.720 291.185 M163.200 291.037 C 160.723 291.500,160.377 291.685,159.760 292.877 C 158.902 294.536,159.139 300.111,160.109 301.080 C 161.024 301.995,163.797 302.349,170.276 302.376 C 176.512 302.402,176.412 302.360,176.466 305.029 C 176.516 307.536,176.375 307.587,169.274 307.594 C 163.082 307.600,161.600 307.318,161.600 306.136 C 161.600 305.536,159.477 305.589,158.862 306.204 C 158.317 306.750,158.761 308.907,159.603 309.803 L 160.539 310.800 168.420 310.800 C 179.736 310.800,180.000 310.668,180.000 305.011 C 180.000 299.410,179.565 299.136,170.667 299.139 C 162.892 299.142,162.400 298.980,162.400 296.418 C 162.400 294.092,162.676 294.000,169.690 294.000 L 176.020 294.000 176.404 295.009 C 176.790 296.025,178.335 296.105,179.367 295.161 C 180.023 294.562,178.896 291.719,177.898 291.454 C 176.724 291.142,164.495 290.796,163.200 291.037 M240.900 291.084 C 240.625 291.185,240.400 291.876,240.400 292.620 L 240.400 293.973 244.700 294.086 L 249.000 294.200 249.200 302.400 L 249.400 310.600 251.200 310.600 L 253.000 310.600 253.109 302.618 C 253.235 293.323,252.835 294.014,258.092 294.006 C 262.247 294.000,263.471 293.173,261.982 291.378 C 261.493 290.790,242.436 290.524,240.900 291.084 M303.700 291.082 C 302.815 291.253,302.800 291.354,302.800 297.195 C 302.800 305.395,302.705 305.544,299.438 302.500 C 298.317 301.455,296.157 299.520,294.638 298.200 C 293.120 296.880,291.679 295.620,291.437 295.400 C 283.714 288.376,283.308 288.759,283.516 302.900 L 283.632 310.800 285.164 310.800 C 287.060 310.800,287.189 310.274,287.196 302.500 C 287.200 296.663,287.249 296.577,289.480 298.500 C 292.307 300.937,293.750 302.199,296.000 304.200 C 306.699 313.719,306.243 313.914,306.216 299.818 C 306.200 291.675,306.025 290.565,304.800 290.861 C 304.690 290.887,304.195 290.987,303.700 291.082 M319.656 291.182 C 317.079 291.824,317.013 292.040,316.875 300.269 C 316.689 311.273,316.181 310.800,328.200 310.800 C 339.612 310.800,339.760 310.702,339.516 303.299 L 339.400 299.800 335.800 299.600 C 329.976 299.276,328.600 299.544,328.600 301.000 L 328.600 302.200 331.895 302.316 C 335.688 302.450,336.087 302.785,335.719 305.528 C 335.433 307.659,335.439 307.658,327.400 307.514 L 321.000 307.400 321.000 300.800 L 321.000 294.200 327.708 294.090 C 334.134 293.985,336.363 294.289,335.805 295.192 C 335.437 295.788,336.317 296.052,337.765 295.780 C 340.307 295.303,339.757 292.150,337.000 291.391 C 335.094 290.866,321.577 290.703,319.656 291.182 M125.780 291.709 C 125.672 291.988,125.633 296.353,125.692 301.409 L 125.800 310.600 127.200 310.600 L 128.600 310.600 128.800 304.033 C 128.933 299.664,129.152 297.415,129.452 297.315 C 129.822 297.192,139.201 304.959,140.600 306.546 C 142.195 308.357,145.848 310.827,146.770 310.720 L 147.800 310.600 147.800 301.000 L 147.800 291.400 146.400 291.400 L 145.000 291.400 144.890 297.900 C 144.774 304.777,144.415 305.755,142.749 303.734 C 142.447 303.368,141.120 302.171,139.800 301.073 C 138.480 299.976,136.320 298.135,135.000 296.983 C 133.680 295.830,131.649 294.058,130.487 293.044 C 128.342 291.172,126.217 290.570,125.780 291.709 M190.667 291.467 C 190.180 291.953,190.363 307.982,190.865 308.926 C 191.805 310.690,192.237 310.774,200.450 310.787 C 212.780 310.807,212.071 311.510,211.908 299.432 L 211.800 291.400 210.000 291.400 L 208.200 291.400 208.092 299.294 C 207.963 308.633,208.853 307.682,200.400 307.515 L 194.600 307.400 194.352 299.800 C 194.216 295.620,194.081 291.975,194.052 291.700 C 193.997 291.176,191.154 290.980,190.667 291.467 M222.999 293.700 C 222.854 295.075,222.795 299.440,222.868 303.400 L 223.000 310.600 232.200 310.600 L 241.400 310.600 241.400 309.200 L 241.400 307.800 234.629 307.690 C 226.051 307.551,226.800 308.387,226.800 298.951 L 226.800 291.200 225.032 291.200 L 223.264 291.200 222.999 293.700 M268.980 291.709 C 268.872 291.988,268.833 296.353,268.892 301.409 L 269.000 310.600 270.559 310.728 C 271.417 310.798,272.239 310.660,272.387 310.421 C 272.747 309.839,272.929 292.791,272.585 291.900 C 272.259 291.056,269.291 290.898,268.980 291.709 M110.720 294.480 C 111.390 295.150,111.390 306.450,110.720 307.120 C 110.213 307.627,97.080 307.836,95.833 307.357 C 94.996 307.036,94.870 294.600,95.700 294.265 C 96.830 293.809,110.241 294.001,110.720 294.480 " stroke="none" fill="#30903d" fill-rule="evenodd"></path><path id="path3" d="M192.000 89.413 C 183.694 90.189,178.777 91.324,172.200 93.985 C 170.440 94.696,168.409 95.501,167.687 95.772 C 166.965 96.044,166.164 96.476,165.907 96.733 C 165.650 96.990,165.251 97.202,165.020 97.204 C 164.212 97.212,155.078 103.154,152.650 105.251 C 148.114 109.169,140.806 116.874,140.802 117.742 C 140.801 117.931,140.295 118.741,139.678 119.542 C 136.703 123.407,132.774 131.412,130.912 137.400 C 124.927 156.653,127.919 180.129,138.352 195.770 C 139.369 197.293,140.380 198.822,140.600 199.166 C 141.807 201.057,146.318 206.198,149.119 208.874 C 155.669 215.131,162.314 219.304,172.600 223.617 C 175.937 225.016,182.240 226.641,187.341 227.417 C 190.226 227.856,188.384 228.159,179.887 228.641 C 171.427 229.121,169.200 229.405,169.200 230.001 C 169.200 231.565,218.177 231.992,224.798 230.486 C 227.743 229.816,222.719 228.930,213.960 228.575 C 207.422 228.309,205.401 227.886,208.448 227.420 C 210.934 227.040,218.302 225.221,220.200 224.518 C 224.203 223.036,229.648 220.451,232.800 218.537 C 237.340 215.779,239.661 215.526,245.000 217.208 C 250.607 218.974,254.854 220.079,255.097 219.837 C 255.400 219.533,252.302 216.452,248.222 213.000 C 246.922 211.900,243.235 208.691,240.029 205.870 C 232.375 199.133,233.158 199.398,229.328 202.253 C 227.597 203.544,225.735 204.858,225.190 205.172 C 222.243 206.876,216.294 209.609,214.200 210.222 C 212.880 210.608,212.031 211.003,212.314 211.100 C 213.062 211.356,219.012 209.309,221.757 207.852 C 224.705 206.286,224.712 206.281,231.489 201.681 L 232.843 200.761 234.921 202.471 C 236.065 203.412,238.350 205.348,240.000 206.774 C 241.650 208.199,243.435 209.733,243.966 210.183 C 245.133 211.171,251.391 216.643,252.790 217.900 C 254.260 219.221,253.161 219.111,247.365 217.361 C 239.872 215.099,237.168 215.187,232.777 217.837 C 229.561 219.778,228.235 220.451,223.205 222.695 C 213.432 227.054,200.190 228.846,189.400 227.269 C 181.477 226.110,169.702 222.545,166.600 220.366 C 166.380 220.211,164.986 219.432,163.502 218.634 C 146.171 209.317,133.559 191.791,129.943 172.000 C 128.264 162.811,128.051 149.093,129.626 151.642 C 130.035 152.304,131.198 149.513,131.206 147.851 C 131.212 146.713,131.945 144.862,132.019 145.800 C 132.037 146.020,132.225 145.764,132.438 145.232 C 132.707 144.558,132.951 144.391,133.243 144.683 C 133.814 145.254,133.529 147.426,132.900 147.300 C 132.598 147.240,132.400 147.631,132.400 148.289 L 132.400 149.378 133.023 148.489 C 133.929 147.195,134.395 147.396,134.440 149.100 C 134.481 150.652,135.085 153.062,135.166 152.000 C 135.207 151.475,135.259 151.473,135.584 151.988 C 135.789 152.312,136.011 152.492,136.078 152.388 C 136.745 151.356,137.200 150.299,137.200 149.782 C 137.200 149.436,137.388 149.269,137.618 149.411 C 137.847 149.553,138.317 149.435,138.661 149.150 C 139.183 148.716,139.372 148.748,139.805 149.339 C 140.133 149.788,140.419 149.892,140.585 149.624 C 141.410 148.289,141.998 149.278,141.940 151.900 C 141.907 153.385,141.805 154.105,141.713 153.500 C 141.622 152.895,141.379 152.400,141.173 152.400 C 140.632 152.400,140.716 153.299,141.342 154.211 C 141.706 154.740,141.959 156.909,142.113 160.800 C 142.935 181.616,154.769 199.105,174.200 208.221 C 177.826 209.922,178.687 210.224,183.800 211.589 C 192.249 213.844,207.683 213.819,211.188 211.544 C 211.832 211.126,211.005 211.230,207.000 212.069 C 191.440 215.331,171.454 209.146,159.400 197.339 C 156.872 194.863,153.600 191.339,153.600 191.093 C 153.600 190.990,152.766 189.667,151.747 188.153 C 137.728 167.331,140.840 137.709,158.900 120.071 C 178.066 101.354,205.727 98.775,227.933 113.634 C 230.206 115.155,232.258 116.400,232.492 116.400 C 233.078 116.400,236.690 113.454,241.588 108.980 C 242.805 107.869,245.059 105.889,246.597 104.580 C 254.002 98.279,254.023 98.320,244.214 100.034 C 237.610 101.187,237.191 101.136,232.728 98.622 C 223.329 93.326,212.786 89.974,203.763 89.410 C 201.583 89.274,199.260 89.105,198.600 89.035 C 197.940 88.965,194.970 89.135,192.000 89.413 M134.400 140.680 C 134.400 141.484,134.284 141.644,133.947 141.307 C 133.698 141.058,133.602 140.572,133.734 140.227 C 134.101 139.273,134.400 139.477,134.400 140.680 M141.594 144.324 C 141.591 144.696,141.413 145.270,141.200 145.600 C 140.912 146.045,140.811 145.807,140.806 144.676 C 140.802 143.761,140.960 143.252,141.200 143.400 C 141.420 143.536,141.597 143.952,141.594 144.324 M142.676 147.900 C 142.575 148.285,142.493 147.970,142.493 147.200 C 142.493 146.430,142.575 146.115,142.676 146.500 C 142.776 146.885,142.776 147.515,142.676 147.900 M205.289 229.529 C 205.735 229.975,195.108 230.127,191.513 229.726 L 188.600 229.400 191.600 229.172 C 195.556 228.872,204.875 229.115,205.289 229.529 M62.400 290.671 C 60.080 291.563,60.000 291.904,60.000 300.888 C 60.000 309.218,60.002 309.238,60.982 310.218 L 61.964 311.200 70.800 311.200 L 79.636 311.200 80.618 310.218 C 81.891 308.946,82.092 304.279,80.900 303.670 C 78.251 302.316,76.898 302.815,76.728 305.207 L 76.600 307.000 70.800 307.000 L 65.000 307.000 65.000 300.800 L 65.000 294.600 70.800 294.600 L 76.600 294.600 76.733 295.998 C 76.900 297.759,77.455 298.440,78.546 298.221 C 81.858 297.558,81.600 297.825,81.600 295.062 C 81.600 290.733,81.337 290.617,71.269 290.520 C 66.721 290.476,62.730 290.544,62.400 290.671 M92.682 291.038 C 90.998 291.951,90.800 293.005,90.800 301.046 C 90.800 312.003,89.877 311.241,103.161 311.244 C 114.265 311.247,114.919 311.089,115.081 308.360 L 115.161 307.000 114.771 308.295 C 114.075 310.599,113.135 310.801,103.120 310.794 C 90.891 310.786,91.259 311.089,91.225 301.000 C 91.189 290.573,90.684 291.000,103.071 291.000 C 113.232 291.000,114.145 291.204,114.867 293.636 C 115.098 294.414,115.139 294.329,115.077 293.200 C 114.938 290.673,113.750 290.399,103.000 290.417 C 95.559 290.429,93.586 290.548,92.682 291.038 M125.242 290.950 C 124.921 291.336,124.817 294.393,124.893 301.250 L 125.000 311.000 127.200 311.000 L 129.400 311.000 129.510 304.700 C 129.575 300.984,129.779 298.400,130.007 298.400 C 130.220 298.400,133.669 301.269,137.671 304.775 C 145.155 311.332,146.014 311.879,147.772 311.211 L 148.800 310.820 148.800 301.090 C 148.800 290.385,148.803 290.400,146.369 290.400 C 144.172 290.400,144.033 290.805,143.911 297.592 L 143.800 303.728 139.000 299.610 C 136.360 297.345,133.574 294.931,132.809 294.246 C 128.359 290.260,126.490 289.446,125.242 290.950 M161.308 290.681 C 158.672 291.190,157.567 298.921,159.765 301.478 L 160.729 302.600 168.265 302.800 L 175.800 303.000 175.800 305.000 L 175.800 307.000 169.327 307.110 L 162.853 307.220 162.308 306.110 C 161.438 304.337,158.000 304.874,158.000 306.782 C 158.000 310.915,158.651 311.172,169.126 311.187 C 180.428 311.203,180.400 311.219,180.400 304.766 C 180.400 298.823,180.163 298.669,170.600 298.402 L 163.400 298.200 163.400 296.400 L 163.400 294.600 169.176 294.489 L 174.952 294.377 175.804 295.445 C 177.006 296.954,179.725 296.426,179.931 294.644 C 180.132 292.904,179.284 291.307,177.903 290.826 C 176.738 290.420,163.269 290.302,161.308 290.681 M190.080 290.880 C 189.469 291.491,189.416 306.322,190.018 308.488 C 190.745 311.106,191.122 311.200,200.863 311.200 C 213.262 311.200,212.463 312.023,212.308 299.398 L 212.200 290.600 210.000 290.600 L 207.800 290.600 207.600 298.800 L 207.400 307.000 201.200 307.000 L 195.000 307.000 194.779 298.800 C 194.657 294.290,194.522 290.555,194.479 290.500 C 194.212 290.162,190.475 290.485,190.080 290.880 M222.588 290.886 C 222.477 291.177,222.434 295.822,222.493 301.208 L 222.600 311.000 232.400 311.000 L 242.200 311.000 242.200 309.200 L 242.200 307.400 234.800 307.200 L 227.400 307.000 227.200 298.800 L 227.000 290.600 224.896 290.479 C 223.430 290.395,222.730 290.518,222.588 290.886 M239.776 291.353 C 239.113 293.993,239.386 294.181,244.200 294.400 L 248.600 294.600 248.708 302.857 L 248.816 311.114 250.184 311.371 C 251.985 311.708,253.597 311.279,253.612 310.457 C 253.619 310.095,253.664 306.380,253.712 302.200 L 253.800 294.600 258.200 294.400 L 262.600 294.200 262.600 292.400 L 262.600 290.600 251.309 290.494 L 240.018 290.388 239.776 291.353 M268.667 290.667 C 268.520 290.813,268.400 295.381,268.400 300.818 C 268.400 312.041,268.359 311.892,271.275 311.316 L 273.000 310.975 273.113 301.588 C 273.252 289.987,273.335 290.400,270.859 290.400 C 269.800 290.400,268.813 290.520,268.667 290.667 M283.272 292.700 C 283.343 294.975,283.346 294.979,283.494 293.100 C 283.747 289.893,286.146 290.588,291.437 295.400 C 291.679 295.620,293.120 296.880,294.638 298.200 C 296.157 299.520,298.317 301.455,299.438 302.500 C 302.704 305.543,302.800 305.393,302.800 297.214 L 302.800 291.293 303.875 291.088 C 306.243 290.635,306.660 292.153,306.262 299.776 C 306.111 302.674,306.166 304.840,306.399 305.200 C 306.830 305.865,306.982 292.141,306.557 291.033 C 306.382 290.575,305.773 290.400,304.357 290.400 L 302.400 290.400 302.400 296.776 C 302.400 300.407,302.235 303.255,302.017 303.389 C 301.806 303.520,299.436 301.685,296.750 299.313 C 287.660 291.286,286.467 290.400,284.744 290.400 L 283.200 290.400 283.272 292.700 M318.358 290.846 C 316.569 291.502,316.241 292.824,316.082 300.036 C 315.828 311.501,315.433 311.117,327.600 311.232 C 340.286 311.353,340.000 311.524,340.000 303.820 L 340.000 299.200 336.300 299.275 L 332.600 299.349 336.000 299.575 L 339.400 299.800 339.516 303.299 C 339.760 310.702,339.612 310.800,328.200 310.800 C 316.314 310.800,316.800 311.217,316.800 301.007 C 316.800 290.544,316.300 291.018,327.395 290.953 C 336.922 290.897,338.387 291.181,339.051 293.211 C 339.644 295.025,339.422 295.469,337.765 295.780 C 336.317 296.052,335.437 295.788,335.805 295.192 C 336.363 294.289,334.134 293.985,327.708 294.090 L 321.000 294.200 321.000 300.800 L 321.000 307.400 327.400 307.514 C 335.439 307.658,335.433 307.659,335.719 305.528 C 336.087 302.785,335.688 302.450,331.895 302.316 L 328.600 302.200 328.600 301.000 C 328.600 299.882,328.723 299.783,330.400 299.548 C 332.175 299.299,332.170 299.296,330.000 299.348 L 327.800 299.400 327.800 301.000 L 327.800 302.600 331.082 302.800 C 334.859 303.030,335.302 303.320,335.127 305.447 L 335.000 307.000 328.200 307.000 L 321.400 307.000 321.400 300.800 L 321.400 294.600 328.106 294.490 L 334.812 294.381 335.216 295.443 C 335.852 297.115,340.000 296.475,340.000 294.705 C 340.000 292.727,339.108 291.299,337.589 290.844 C 335.766 290.298,319.847 290.299,318.358 290.846 M77.638 291.207 C 80.381 291.727,80.793 292.175,81.078 294.937 L 81.312 297.200 80.056 297.260 C 79.365 297.293,78.582 297.338,78.316 297.360 C 78.050 297.382,77.710 296.798,77.559 296.063 C 77.141 294.018,76.970 293.970,70.569 294.089 L 64.600 294.200 64.600 300.800 L 64.600 307.400 70.569 307.511 C 77.123 307.633,77.194 307.610,77.336 305.361 C 77.446 303.615,78.200 303.240,80.126 303.972 C 81.634 304.545,81.698 307.777,80.235 309.478 L 79.269 310.600 70.846 310.600 C 59.710 310.600,60.600 311.451,60.600 300.803 C 60.600 291.960,60.639 291.818,63.256 291.199 C 65.239 290.731,75.155 290.736,77.638 291.207 M177.898 291.454 C 178.896 291.719,180.023 294.562,179.367 295.161 C 178.335 296.105,176.790 296.025,176.404 295.009 L 176.020 294.000 169.690 294.000 C 162.676 294.000,162.400 294.092,162.400 296.418 C 162.400 298.980,162.892 299.142,170.667 299.139 C 179.565 299.136,180.000 299.410,180.000 305.011 C 180.000 310.668,179.736 310.800,168.420 310.800 L 160.539 310.800 159.603 309.803 C 158.761 308.907,158.317 306.750,158.862 306.204 C 159.477 305.589,161.600 305.536,161.600 306.136 C 161.600 307.318,163.082 307.600,169.274 307.594 C 176.375 307.587,176.516 307.536,176.466 305.029 C 176.412 302.360,176.512 302.402,170.276 302.376 C 163.797 302.349,161.024 301.995,160.109 301.080 C 159.139 300.111,158.902 294.536,159.760 292.877 C 160.377 291.685,160.723 291.500,163.200 291.037 C 164.495 290.796,176.724 291.142,177.898 291.454 M261.982 291.378 C 263.471 293.173,262.247 294.000,258.092 294.006 C 252.835 294.014,253.235 293.323,253.109 302.618 L 253.000 310.600 251.200 310.600 L 249.400 310.600 249.200 302.400 L 249.000 294.200 244.700 294.086 L 240.400 293.973 240.400 292.620 C 240.400 290.837,239.937 290.912,251.437 290.834 C 260.011 290.777,261.549 290.856,261.982 291.378 M130.487 293.044 C 131.649 294.058,133.680 295.830,135.000 296.983 C 136.320 298.135,138.480 299.976,139.800 301.073 C 141.120 302.171,142.447 303.368,142.749 303.734 C 144.415 305.755,144.774 304.777,144.890 297.900 L 145.000 291.400 146.400 291.400 L 147.800 291.400 147.800 301.000 L 147.800 310.600 146.770 310.720 C 145.848 310.827,142.195 308.357,140.600 306.546 C 139.201 304.959,129.822 297.192,129.452 297.315 C 129.152 297.415,128.933 299.664,128.800 304.033 L 128.600 310.600 127.200 310.600 L 125.800 310.600 125.692 301.409 C 125.555 289.664,125.907 289.049,130.487 293.044 M194.052 291.700 C 194.081 291.975,194.216 295.620,194.352 299.800 L 194.600 307.400 200.400 307.515 C 208.853 307.682,207.963 308.633,208.092 299.294 L 208.200 291.400 210.000 291.400 L 211.800 291.400 211.908 299.432 C 212.071 311.510,212.780 310.807,200.450 310.787 C 192.237 310.774,191.805 310.690,190.865 308.926 C 190.363 307.982,190.180 291.953,190.667 291.467 C 191.154 290.980,193.997 291.176,194.052 291.700 M226.800 298.951 C 226.800 308.387,226.051 307.551,234.629 307.690 L 241.400 307.800 241.400 309.200 L 241.400 310.600 232.200 310.600 L 223.000 310.600 222.868 303.400 C 222.795 299.440,222.854 295.075,222.999 293.700 L 223.264 291.200 225.032 291.200 L 226.800 291.200 226.800 298.951 M272.585 291.900 C 272.929 292.791,272.747 309.839,272.387 310.421 C 272.239 310.660,271.417 310.798,270.559 310.728 L 269.000 310.600 268.892 301.409 C 268.833 296.353,268.872 291.988,268.980 291.709 C 269.291 290.898,272.259 291.056,272.585 291.900 M95.700 294.265 C 94.870 294.600,94.996 307.036,95.833 307.357 C 97.080 307.836,110.213 307.627,110.720 307.120 C 111.390 306.450,111.390 295.150,110.720 294.480 C 110.241 294.001,96.830 293.809,95.700 294.265 M110.200 300.800 L 110.200 307.000 103.000 307.000 L 95.800 307.000 95.689 301.218 C 95.542 293.610,94.715 294.362,103.091 294.491 L 110.200 294.600 110.200 300.800 M115.361 300.800 C 115.361 304.210,115.422 305.605,115.497 303.900 C 115.572 302.195,115.572 299.405,115.497 297.700 C 115.422 295.995,115.361 297.390,115.361 300.800 M283.291 303.100 L 283.200 311.200 285.157 311.200 C 287.634 311.200,287.600 311.298,287.600 304.167 C 287.600 300.189,287.738 298.400,288.046 298.400 C 288.407 298.400,293.645 302.723,294.400 303.643 C 294.510 303.777,295.419 304.587,296.420 305.443 C 297.421 306.300,299.285 307.900,300.562 309.000 C 303.019 311.116,305.241 311.902,306.163 310.980 C 306.738 310.404,306.975 307.200,306.442 307.200 C 306.248 307.200,306.097 307.425,306.107 307.700 C 306.205 310.322,306.008 310.800,304.831 310.800 C 303.523 310.800,302.871 310.313,296.000 304.200 C 293.750 302.199,292.307 300.937,289.480 298.500 C 287.249 296.577,287.200 296.663,287.196 302.500 C 287.189 310.281,287.062 310.800,285.156 310.800 L 283.617 310.800 283.500 302.900 L 283.382 295.000 283.291 303.100 " stroke="none" fill="#80b849" fill-rule="evenodd"></path></g></svg>